<?xml version="1.0" encoding="UTF-8" standalone="no"?>
<svg
   xmlns:dc="http://purl.org/dc/elements/1.1/"
   xmlns:cc="http://creativecommons.org/ns#"
   xmlns:rdf="http://www.w3.org/1999/02/22-rdf-syntax-ns#"
   xmlns:svg="http://www.w3.org/2000/svg"
   xmlns="http://www.w3.org/2000/svg"
   xmlns:sodipodi="http://sodipodi.sourceforge.net/DTD/sodipodi-0.dtd"
   xmlns:inkscape="http://www.inkscape.org/namespaces/inkscape"
   version="1.0"
   width="52.637428mm"
   height="9.9874392mm"
   id="svg7560"
   inkscape:version="0.91 r13725"
   viewBox="0 0 52.637428 9.9874395"
   sodipodi:docname="HPS Boot Flow until Preloader.emf">
  <metadata
     id="metadata7623">
    <rdf:RDF>
      <cc:Work
         rdf:about="">
        <dc:format>image/svg+xml</dc:format>
        <dc:type
           rdf:resource="http://purl.org/dc/dcmitype/StillImage" />
        <dc:title></dc:title>
      </cc:Work>
    </rdf:RDF>
  </metadata>
  <sodipodi:namedview
     pagecolor="#ffffff"
     bordercolor="#666666"
     borderopacity="1"
     objecttolerance="10"
     gridtolerance="10"
     guidetolerance="10"
     inkscape:pageopacity="0"
     inkscape:pageshadow="2"
     inkscape:window-width="1858"
     inkscape:window-height="1177"
     id="namedview7621"
     inkscape:document-units="mm"
     showgrid="false"
     fit-margin-top="0"
     fit-margin-left="0"
     fit-margin-right="0"
     fit-margin-bottom="0"
     inkscape:zoom="1.6656768"
     inkscape:cx="67.532862"
     inkscape:cy="59.095032"
     inkscape:window-x="54"
     inkscape:window-y="-8"
     inkscape:window-maximized="1"
     inkscape:current-layer="svg7560" />
  <defs
     id="defs7562">
    <pattern
       id="EMFhbasepattern"
       patternUnits="userSpaceOnUse"
       width="6"
       height="6"
       x="0"
       y="0" />
  </defs>
  <path
     style="fill:#ffffff;fill-opacity:1;fill-rule:nonzero;stroke:#231f20;stroke-width:0.14973682px;stroke-linecap:butt;stroke-linejoin:miter;stroke-miterlimit:282;stroke-dasharray:none;stroke-opacity:1"
     d="m 0.07486841,0.07486841 0,9.83770199 13.63613259,0 0,-9.83770199 -13.63613259,0 z"
     id="path7565"
     inkscape:connector-curvature="0" />
  <path
     style="fill:#ffffff;fill-opacity:1;fill-rule:nonzero;stroke:#231f20;stroke-width:0.14973682px;stroke-linecap:butt;stroke-linejoin:miter;stroke-miterlimit:282;stroke-dasharray:none;stroke-opacity:1"
     d="m 19.360801,0.07486841 0,9.83770199 13.62626,0 0,-9.83770199 -13.62626,0 z"
     id="path7567"
     inkscape:connector-curvature="0" />
  <path
     style="fill:#ffffff;fill-opacity:1;fill-rule:nonzero;stroke:#231f20;stroke-width:0.14973682px;stroke-linecap:butt;stroke-linejoin:miter;stroke-miterlimit:282;stroke-dasharray:none;stroke-opacity:1"
     d="m 38.926421,0.07486841 0,9.83770199 13.63614,0 0,-9.83770199 -13.63614,0 z"
     id="path7569"
     inkscape:connector-curvature="0" />
  <path
     style="fill:#231f20;fill-opacity:1;fill-rule:nonzero;stroke:none"
     d="m 16.985061,4.9886394 0,-0.948549 2.37574,0.948549 -2.37574,0.958991 0,-0.958991 z"
     id="path7571"
     inkscape:connector-curvature="0" />
  <path
     style="fill:none;stroke:#231f20;stroke-width:0.14973682px;stroke-linecap:butt;stroke-linejoin:miter;stroke-miterlimit:272;stroke-dasharray:none;stroke-opacity:1"
     d="m 17.614131,4.9886394 -3.90313,0"
     id="path7573"
     inkscape:connector-curvature="0" />
  <path
     style="fill:#231f20;fill-opacity:1;fill-rule:nonzero;stroke:none"
     d="m 36.470811,4.9886394 0,-0.948549 2.37575,0.948549 -2.37575,0.958991 0,-0.958991 z"
     id="path7575"
     inkscape:connector-curvature="0" />
  <path
     style="fill:none;stroke:#231f20;stroke-width:0.14973682px;stroke-linecap:butt;stroke-linejoin:miter;stroke-miterlimit:272;stroke-dasharray:none;stroke-opacity:1"
     d="m 37.109761,4.9886394 -4.1227,0"
     id="path7577"
     inkscape:connector-curvature="0" />
  <path
     style="fill:#000000;fill-opacity:1;fill-rule:nonzero;stroke:none"
     d="m 4.2675614,5.8875174 0,-1.817512 0.658707,0 c 0.129822,0 0.239606,0.02004 0.299437,0.04995 0.06999,0.03979 0.119945,0.08975 0.159738,0.169615 0.04995,0.07987 0.06999,0.169898 0.06999,0.279683 0,0.129822 -0.04008,0.239606 -0.109784,0.329635 -0.06999,0.07987 -0.179776,0.1397 -0.309598,0.159738 0.04995,0.02992 0.09991,0.06999 0.119945,0.09991 0.05983,0.06999 0.119662,0.14986 0.159737,0.229728 l 0.259363,0.499252 -0.249485,0 -0.199531,-0.379307 c -0.06999,-0.14986 -0.129822,-0.249767 -0.169898,-0.29972 -0.03979,-0.04995 -0.07987,-0.07987 -0.109784,-0.09991 -0.03979,-0.02004 -0.08975,-0.02992 -0.159738,-0.02992 l -0.229447,0 0,0.808849 z m 0.189653,-1.01854 0.42926,0 c 0.08975,0 0.159738,-0.01016 0.209409,-0.02992 0.04995,-0.02004 0.07987,-0.06011 0.110067,-0.110067 0.02992,-0.03979 0.03979,-0.09991 0.03979,-0.159737 0,-0.09991 -0.02004,-0.169616 -0.07987,-0.219569 -0.04995,-0.04995 -0.129822,-0.07987 -0.239606,-0.07987 l -0.469054,0 z"
     id="path7579"
     inkscape:connector-curvature="0" />
  <path
     style="fill:#000000;fill-opacity:1;fill-rule:nonzero;stroke:none"
     d="m 6.4736914,5.4582574 0.18965,0.02992 c -0.0299,0.1397 -0.09,0.249767 -0.16989,0.319476 -0.07987,0.06999 -0.179497,0.110066 -0.309319,0.110066 -0.14986,0 -0.269522,-0.06011 -0.369429,-0.179775 -0.08975,-0.110067 -0.1397,-0.279682 -0.1397,-0.499534 0,-0.229728 0.04995,-0.399344 0.1397,-0.519288 0.09991,-0.119945 0.219569,-0.179776 0.369429,-0.179776 0.1397,0 0.249485,0.05983 0.349389,0.179776 0.0898,0.119944 0.1397,0.28956 0.1397,0.509411 l 0,0.05983 -0.808564,0 c 0.0099,0.14986 0.03979,0.259644 0.09991,0.329635 0.05983,0.07987 0.1397,0.109785 0.229447,0.109785 0.129822,0 0.229729,-0.08975 0.279677,-0.269522 z m -0.599157,-0.359552 0.599157,0 c 0,-0.110066 -0.0302,-0.199813 -0.06999,-0.249766 -0.05983,-0.07987 -0.129822,-0.119945 -0.219569,-0.119945 -0.08975,0 -0.159738,0.0302 -0.209691,0.09991 -0.05983,0.06999 -0.08975,0.159738 -0.09991,0.269804 z"
     id="path7581"
     inkscape:connector-curvature="0" />
  <path
     style="fill:#000000;fill-opacity:1;fill-rule:nonzero;stroke:none"
     d="m 6.8230814,5.4980504 0.1795,-0.03979 c 0.0102,0.08975 0.0401,0.159737 0.09,0.209691 0.0497,0.03979 0.10979,0.05983 0.18966,0.05983 0.0799,0 0.1397,-0.0099 0.18965,-0.04995 0.0398,-0.03979 0.0598,-0.08975 0.0598,-0.14986 0,-0.05983 -0.02,-0.09962 -0.0499,-0.129822 -0.0299,-0.01976 -0.0897,-0.03979 -0.18965,-0.06971 -0.1397,-0.04008 -0.23961,-0.07987 -0.28956,-0.110066 -0.0398,-0.02992 -0.0799,-0.06971 -0.10979,-0.119663 -0.02,-0.06011 -0.0398,-0.110066 -0.0398,-0.179775 0,-0.110067 0.0398,-0.199813 0.10978,-0.269805 0.0697,-0.06971 0.16962,-0.109784 0.29944,-0.109784 0.0799,0 0.14958,0.02004 0.20969,0.04995 0.0598,0.02004 0.10979,0.05983 0.1397,0.109785 0.0299,0.04995 0.0598,0.119944 0.0697,0.209691 l -0.17949,0.0302 c -0.02,-0.139983 -0.0999,-0.209974 -0.23961,-0.209974 -0.07,0 -0.12982,0.01016 -0.16962,0.04008 -0.0401,0.02992 -0.0601,0.07987 -0.0601,0.129822 0,0.04008 0.02,0.07987 0.05,0.109785 0.0299,0.02004 0.09,0.04008 0.19982,0.07987 0.14958,0.04995 0.24948,0.09003 0.29944,0.119945 0.0398,0.02004 0.0799,0.05983 0.0996,0.109784 0.0302,0.04995 0.0401,0.110067 0.0401,0.179776 0,0.119944 -0.0401,0.229729 -0.11967,0.29972 -0.0799,0.07987 -0.18993,0.119944 -0.32963,0.119944 -0.25936,0 -0.40922,-0.139982 -0.44902,-0.419664 z"
     id="path7583"
     inkscape:connector-curvature="0" />
  <path
     style="fill:#000000;fill-opacity:1;fill-rule:nonzero;stroke:none"
     d="m 8.6696614,5.4582574 0.18966,0.02992 c -0.0299,0.1397 -0.0897,0.249767 -0.16962,0.319476 -0.0799,0.06999 -0.17978,0.110066 -0.3096,0.110066 -0.14958,0 -0.26952,-0.06011 -0.36914,-0.179775 -0.09,-0.110067 -0.1397,-0.279682 -0.1397,-0.499534 0,-0.229728 0.0497,-0.399344 0.1397,-0.519288 0.0996,-0.119945 0.21956,-0.179776 0.36914,-0.179776 0.13998,0 0.24977,0.05983 0.34939,0.179776 0.09,0.119944 0.13999,0.28956 0.13999,0.509411 l 0,0.05983 -0.80857,0 c 0.01,0.14986 0.0398,0.259644 0.0996,0.329635 0.0601,0.07987 0.1397,0.109785 0.22973,0.109785 0.12982,0 0.22945,-0.08975 0.2794,-0.269522 z m -0.59887,-0.359552 0.59887,0 c 0,-0.110066 -0.0299,-0.199813 -0.0697,-0.249766 -0.0601,-0.07987 -0.12982,-0.119945 -0.21985,-0.119945 -0.0897,0 -0.15945,0.0302 -0.20941,0.09991 -0.0601,0.06999 -0.09,0.159738 -0.0999,0.269804 z"
     id="path7585"
     inkscape:connector-curvature="0" />
  <path
     style="fill:#000000;fill-opacity:1;fill-rule:nonzero;stroke:none"
     d="m 9.4982714,5.6879854 0.02,0.199532 c -0.0499,0.01016 -0.09,0.02004 -0.12982,0.02004 -0.07,0 -0.11994,-0.02004 -0.15974,-0.03979 -0.0299,-0.0302 -0.0598,-0.06011 -0.0799,-0.110067 -0.01,-0.03979 -0.02,-0.129822 -0.02,-0.259644 l 0,-0.749018 -0.12982,0 0,-0.179775 0.12982,0 0,-0.319476 0.17977,-0.139982 0,0.459458 0.18966,0 0,0.179775 -0.18966,0 0,0.769056 c 0,0.06999 0.01,0.109784 0.02,0.129822 0.0198,0.02991 0.05,0.04995 0.0898,0.04995 0.02,0 0.0499,-0.0099 0.0799,-0.0099 z"
     id="path7587"
     inkscape:connector-curvature="0" />
  <path
     style="fill:#000000;fill-opacity:1;fill-rule:nonzero;stroke:none"
     d="m 21.477191,5.8976774 0,-1.807634 0.55908,0 c 0.10979,0 0.19953,0.0099 0.26952,0.04967 0.0598,0.0302 0.11967,0.09003 0.15974,0.16002 0.0398,0.07987 0.0598,0.159738 0.0598,0.249485 0,0.07987 -0.02,0.16002 -0.05,0.229729 -0.0398,0.06011 -0.0897,0.119944 -0.15974,0.16002 0.09,0.02992 0.15974,0.07987 0.20969,0.159737 0.05,0.06971 0.07,0.169616 0.07,0.279683 0,0.109784 -0.02,0.199531 -0.0601,0.28956 -0.0497,0.07987 -0.10978,0.1397 -0.17949,0.179775 -0.0799,0.03979 -0.17978,0.04995 -0.3096,0.04995 z m 0.19953,-1.048738 0.31948,0 c 0.0799,0 0.13998,-0.0099 0.17977,-0.02004 0.0499,-0.0099 0.0897,-0.03979 0.11966,-0.07987 0.02,-0.04995 0.0401,-0.09991 0.0401,-0.169615 0,-0.06999 -0.01,-0.119945 -0.0401,-0.16002 -0.0198,-0.04995 -0.0598,-0.07987 -0.0996,-0.08975 -0.0401,-0.02004 -0.11995,-0.02992 -0.22973,-0.02992 l -0.28956,0 z m 0,0.839046 0.36943,0 c 0.0799,0 0.1397,-0.01016 0.17977,-0.02004 0.05,-0.02004 0.0999,-0.05983 0.12983,-0.109785 0.0299,-0.04995 0.0398,-0.110066 0.0398,-0.179775 0,-0.06999 -0.01,-0.129823 -0.0398,-0.179776 -0.0299,-0.04995 -0.07,-0.07987 -0.11995,-0.09991 -0.0398,-0.02004 -0.11966,-0.02992 -0.21957,-0.02992 l -0.33951,0 z"
     id="path7589"
     inkscape:connector-curvature="0" />
  <path
     style="fill:#000000;fill-opacity:1;fill-rule:nonzero;stroke:none"
     d="m 22.774851,5.2485654 c 0,-0.229728 0.0499,-0.399626 0.1397,-0.519571 0.0999,-0.109784 0.21985,-0.169615 0.36943,-0.169615 0.1397,0 0.25964,0.05983 0.35955,0.169615 0.0897,0.119945 0.1397,0.279683 0.1397,0.499534 0,0.239606 -0.05,0.419382 -0.1397,0.529166 -0.0999,0.119945 -0.21985,0.169898 -0.35955,0.169898 -0.14958,0 -0.26953,-0.04995 -0.36943,-0.169898 -0.0898,-0.119662 -0.1397,-0.28956 -0.1397,-0.509129 z m 0.18965,0 c 0,0.169616 0.0299,0.28956 0.09,0.379307 0.0598,0.07987 0.1397,0.119945 0.22945,0.119945 0.09,0 0.15973,-0.04008 0.21956,-0.129823 0.0601,-0.07987 0.09,-0.209691 0.09,-0.369429 0,-0.169897 -0.0299,-0.29972 -0.09,-0.379588 -0.0598,-0.09003 -0.1397,-0.129823 -0.22944,-0.129823 -0.09,0 -0.15974,0.03979 -0.21957,0.129823 -0.0601,0.07987 -0.09,0.209691 -0.09,0.379588 z"
     id="path7591"
     inkscape:connector-curvature="0" />
  <path
     style="fill:#000000;fill-opacity:1;fill-rule:nonzero;stroke:none"
     d="m 23.932801,5.2485654 c 0,-0.229728 0.05,-0.399626 0.13999,-0.519571 0.0996,-0.109784 0.21957,-0.169615 0.35927,-0.169615 0.14957,0 0.26952,0.05983 0.36942,0.169615 0.0898,0.119945 0.1397,0.279683 0.1397,0.499534 0,0.239606 -0.0499,0.419382 -0.1397,0.529166 -0.0999,0.119945 -0.21985,0.169898 -0.36942,0.169898 -0.1397,0 -0.25965,-0.04995 -0.35927,-0.169898 -0.09,-0.119662 -0.13999,-0.28956 -0.13999,-0.509129 z m 0.18966,0 c 0,0.169616 0.0299,0.28956 0.09,0.379307 0.0598,0.07987 0.1397,0.119945 0.22944,0.119945 0.09,0 0.15974,-0.04008 0.21957,-0.129823 0.0601,-0.07987 0.09,-0.209691 0.09,-0.369429 0,-0.169897 -0.0299,-0.29972 -0.09,-0.379588 -0.0598,-0.09003 -0.1397,-0.129823 -0.22944,-0.129823 -0.0898,0 -0.15974,0.03979 -0.21957,0.129823 -0.0601,0.07987 -0.09,0.209691 -0.09,0.379588 z"
     id="path7593"
     inkscape:connector-curvature="0" />
  <path
     style="fill:#000000;fill-opacity:1;fill-rule:nonzero;stroke:none"
     d="m 25.560101,5.6978634 0.0299,0.199814 c -0.05,0.02004 -0.0999,0.02004 -0.1397,0.02004 -0.0601,0 -0.10978,-0.01016 -0.14986,-0.04008 -0.0398,-0.02004 -0.0697,-0.05983 -0.0799,-0.09991 -0.02,-0.03979 -0.02,-0.129822 -0.02,-0.259644 l 0,-0.758896 -0.1397,0 0,-0.169898 0.1397,0 0,-0.329635 0.17977,-0.129822 0,0.459457 0.17978,0 0,0.169898 -0.17978,0 0,0.768773 c 0,0.06999 0,0.119945 0.01,0.139983 0.02,0.02991 0.0499,0.03979 0.09,0.03979 0.02,0 0.0499,0 0.0799,-0.0099 z"
     id="path7595"
     inkscape:connector-curvature="0" />
  <path
     style="fill:#000000;fill-opacity:1;fill-rule:nonzero;stroke:none"
     d="m 26.338751,5.8976774 0,-1.807634 0.65871,0 c 0.1397,0 0.2396,0.0099 0.30959,0.04967 0.0598,0.0302 0.11967,0.09003 0.15974,0.169898 0.0398,0.07987 0.0598,0.169898 0.0598,0.269805 0,0.1397 -0.0299,0.249484 -0.10978,0.329353 -0.07,0.09003 -0.1699,0.139982 -0.3096,0.169898 0.0598,0.02992 0.0999,0.05983 0.12982,0.09991 0.0598,0.06999 0.10979,0.1397 0.14986,0.229729 l 0.25936,0.489374 -0.2396,0 -0.19953,-0.369712 c -0.0799,-0.149577 -0.1397,-0.249484 -0.17978,-0.299437 -0.0398,-0.04995 -0.0697,-0.09003 -0.10978,-0.109785 -0.0398,-0.01016 -0.0897,-0.02004 -0.15974,-0.02004 l -0.21957,0 0,0.798972 z m 0.19953,-1.008663 0.41938,0 c 0.0897,0 0.15974,-0.01016 0.20941,-0.0302 0.0499,-0.02992 0.09,-0.05983 0.11995,-0.109785 0.02,-0.04995 0.0398,-0.09991 0.0398,-0.169615 0,-0.09003 -0.0299,-0.16002 -0.0799,-0.209974 -0.0598,-0.05983 -0.1397,-0.07987 -0.23932,-0.07987 l -0.46934,0 z"
     id="path7597"
     inkscape:connector-curvature="0" />
  <path
     style="fill:#000000;fill-opacity:1;fill-rule:nonzero;stroke:none"
     d="m 27.785981,5.0188374 c 0,-0.309598 0.07,-0.549487 0.19982,-0.719103 0.1397,-0.16002 0.30931,-0.249766 0.50913,-0.249766 0.12982,0 0.24948,0.04008 0.35927,0.119944 0.10978,0.06971 0.19981,0.179776 0.25964,0.319476 0.0598,0.1397 0.0898,0.309597 0.0898,0.509411 0,0.269522 -0.0598,0.489373 -0.17978,0.658989 -0.12954,0.179775 -0.30931,0.279682 -0.52888,0.279682 -0.21957,0 -0.39935,-0.09991 -0.52917,-0.28956 -0.11966,-0.179776 -0.17978,-0.389467 -0.17978,-0.629073 z m 0.19982,0 c 0,0.229728 0.05,0.399344 0.14958,0.519288 0.0999,0.129823 0.21985,0.189654 0.35955,0.189654 0.1397,0 0.26952,-0.05983 0.35927,-0.189654 0.0999,-0.119944 0.14986,-0.309597 0.14986,-0.549486 0,-0.149578 -0.02,-0.28956 -0.0799,-0.419382 -0.0299,-0.08975 -0.09,-0.169616 -0.1699,-0.219569 -0.0799,-0.06011 -0.15946,-0.09003 -0.25936,-0.09003 -0.14986,0 -0.26953,0.05983 -0.35955,0.189653 -0.0996,0.119945 -0.14958,0.30988 -0.14958,0.569525 z"
     id="path7599"
     inkscape:connector-curvature="0" />
  <path
     style="fill:#000000;fill-opacity:1;fill-rule:nonzero;stroke:none"
     d="m 29.453071,5.8976774 0,-1.807634 0.28956,0 0.35955,1.278185 0.0697,0.269804 c 0.02,-0.06011 0.0401,-0.159738 0.0799,-0.289842 l 0.35927,-1.258147 0.25964,0 0,1.807634 -0.18965,0 0,-1.518074 -0.42926,1.518074 -0.17978,0 -0.42926,-1.538112 0,1.538112 z"
     id="path7601"
     inkscape:connector-curvature="0" />
  <path
     style="fill:#000000;fill-opacity:1;fill-rule:nonzero;stroke:none"
     d="m 41.302451,5.8875174 0,-1.817512 0.5588,0 c 0.13999,0 0.22973,0.0099 0.29972,0.03979 0.0799,0.02991 0.14958,0.09003 0.19953,0.169898 0.05,0.08975 0.0799,0.189653 0.0799,0.309597 0,0.169898 -0.0401,0.29972 -0.12982,0.399345 -0.0799,0.110066 -0.21957,0.16002 -0.42926,0.16002 l -0.37931,0 0,0.738858 z m 0.19953,-0.948549 0.38947,0 c 0.11966,0 0.20941,-0.0302 0.25936,-0.09003 0.0598,-0.04995 0.09,-0.129822 0.09,-0.249767 0,-0.06971 -0.02,-0.129822 -0.0499,-0.179775 -0.02,-0.04995 -0.0601,-0.08975 -0.0999,-0.109785 -0.0401,-0.0099 -0.10978,-0.02004 -0.20969,-0.02004 l -0.37931,0 z"
     id="path7603"
     inkscape:connector-curvature="0" />
  <path
     style="fill:#000000;fill-opacity:1;fill-rule:nonzero;stroke:none"
     d="m 42.659941,5.8875174 0,-1.31826 0.16962,0 0,0.199813 c 0.0401,-0.09003 0.0799,-0.14986 0.11006,-0.179776 0.0398,-0.02992 0.0796,-0.04995 0.11967,-0.04995 0.0598,0 0.12982,0.02992 0.18965,0.06999 l -0.0598,0.209691 c -0.0499,-0.02992 -0.09,-0.04995 -0.12982,-0.04995 -0.0401,0 -0.0799,0.02004 -0.10979,0.03979 -0.0299,0.0302 -0.0598,0.06999 -0.07,0.119945 -0.0198,0.07987 -0.0299,0.169897 -0.0299,0.269804 l 0,0.688905 z"
     id="path7605"
     inkscape:connector-curvature="0" />
  <path
     style="fill:#000000;fill-opacity:1;fill-rule:nonzero;stroke:none"
     d="m 44.097581,5.4582574 0.1795,0.02992 c -0.0299,0.1397 -0.0799,0.249767 -0.16962,0.319476 -0.0799,0.06999 -0.17978,0.110066 -0.29944,0.110066 -0.14986,0 -0.27968,-0.06011 -0.36943,-0.179775 -0.0999,-0.110067 -0.1397,-0.279682 -0.1397,-0.499534 0,-0.229728 0.0398,-0.399344 0.1397,-0.519288 0.0898,-0.119945 0.20969,-0.179776 0.35927,-0.179776 0.13998,0 0.25965,0.05983 0.34939,0.179776 0.09,0.119944 0.13999,0.28956 0.13999,0.509411 l 0,0.05983 -0.80857,0 c 0.01,0.14986 0.0497,0.259644 0.10978,0.329635 0.0598,0.07987 0.12954,0.119945 0.21957,0.119945 0.1397,0 0.22945,-0.09003 0.28956,-0.279682 z m -0.60903,-0.359552 0.60903,0 c -0.0102,-0.110066 -0.0302,-0.199813 -0.0799,-0.249766 -0.0499,-0.07987 -0.12982,-0.119945 -0.21985,-0.119945 -0.0799,0 -0.14958,0.0302 -0.20941,0.09991 -0.0601,0.06999 -0.09,0.159738 -0.0999,0.269804 z"
     id="path7607"
     inkscape:connector-curvature="0" />
  <path
     style="fill:#000000;fill-opacity:1;fill-rule:nonzero;stroke:none"
     d="m 44.506801,5.8875174 0,-1.817512 0.1795,0 0,1.817512 z"
     id="path7609"
     inkscape:connector-curvature="0" />
  <path
     style="fill:#000000;fill-opacity:1;fill-rule:nonzero;stroke:none"
     d="m 44.906151,5.2285284 c 0,-0.229729 0.0497,-0.399627 0.1397,-0.509411 0.0996,-0.119945 0.21957,-0.179776 0.36915,-0.179776 0.13998,0 0.25964,0.05983 0.35955,0.179776 0.0897,0.109784 0.1397,0.279682 0.1397,0.499251 0,0.229729 -0.05,0.409504 -0.1397,0.529449 -0.0999,0.109784 -0.21957,0.169897 -0.35955,0.169897 -0.14958,0 -0.26953,-0.06011 -0.36915,-0.179775 -0.09,-0.110067 -0.1397,-0.279682 -0.1397,-0.509411 z m 0.18965,0 c 0,0.169615 0.0299,0.299437 0.0898,0.379589 0.0598,0.07987 0.1397,0.129822 0.22945,0.129822 0.09,0 0.15973,-0.04995 0.21985,-0.129822 0.0598,-0.08015 0.0897,-0.209974 0.0897,-0.379589 0,-0.169898 -0.0299,-0.29972 -0.0897,-0.379589 -0.0601,-0.07987 -0.13999,-0.119945 -0.22973,-0.119945 -0.0898,0 -0.15974,0.04008 -0.21957,0.119945 -0.0598,0.09003 -0.0898,0.209691 -0.0898,0.379589 z"
     id="path7611"
     inkscape:connector-curvature="0" />
  <path
     style="fill:#000000;fill-opacity:1;fill-rule:nonzero;stroke:none"
     d="m 46.832601,5.7277794 c -0.0598,0.06011 -0.11966,0.109784 -0.18966,0.139982 -0.0697,0.02992 -0.12982,0.04995 -0.20969,0.04995 -0.10978,0 -0.19953,-0.0302 -0.25936,-0.09991 -0.07,-0.06999 -0.10978,-0.16002 -0.10978,-0.279683 0,-0.06999 0.0198,-0.139982 0.0497,-0.199813 0.0302,-0.05983 0.0799,-0.09991 0.12982,-0.1397 0.0601,-0.0302 0.1397,-0.04995 0.24977,-0.06999 0.14957,-0.02004 0.25936,-0.04995 0.32935,-0.07987 l 0,-0.04995 c 0,-0.09003 -0.02,-0.159738 -0.0499,-0.189936 -0.05,-0.05983 -0.11995,-0.07987 -0.20969,-0.07987 -0.0898,0 -0.14958,0.01016 -0.18966,0.04995 -0.0398,0.02992 -0.0697,0.09991 -0.0897,0.199813 l -0.17978,-0.02992 c 0.02,-0.139982 0.07,-0.249766 0.14986,-0.309597 0.0799,-0.06999 0.18965,-0.09991 0.33923,-0.09991 0.10979,0 0.19981,0.02004 0.25965,0.06999 0.0697,0.03979 0.10978,0.08975 0.12982,0.14986 0.01,0.06971 0.0197,0.159738 0.0197,0.2794 l 0,0.29972 c 0,0.209691 0,0.339513 0.0102,0.389467 0.01,0.06011 0.0299,0.109784 0.05,0.159738 l -0.18966,0 c -0.02,-0.04995 -0.0299,-0.09963 -0.0401,-0.159738 z m -0.01,-0.499251 c -0.07,0.02992 -0.1699,0.05983 -0.29944,0.07987 -0.0799,0.02004 -0.12982,0.02992 -0.15974,0.04995 -0.0299,0.0099 -0.0598,0.03979 -0.0799,0.06999 -0.0102,0.02992 -0.02,0.06971 -0.02,0.109784 0,0.05983 0.02,0.109785 0.0598,0.14986 0.0401,0.03979 0.09,0.04995 0.15974,0.04995 0.0598,0 0.11994,-0.01016 0.17977,-0.04995 0.05,-0.0302 0.0898,-0.07987 0.11966,-0.129822 0.02,-0.06011 0.0401,-0.139982 0.0401,-0.249766 z"
     id="path7613"
     inkscape:connector-curvature="0" />
  <path
     style="fill:#000000;fill-opacity:1;fill-rule:nonzero;stroke:none"
     d="m 47.990561,5.8875174 0,-0.169616 c -0.0398,0.06999 -0.0799,0.119662 -0.12983,0.14986 -0.0497,0.02992 -0.10978,0.04995 -0.16961,0.04995 -0.12982,0 -0.23961,-0.06011 -0.32936,-0.179775 -0.09,-0.119945 -0.1397,-0.289842 -0.1397,-0.509411 0,-0.14986 0.0198,-0.279683 0.0598,-0.379589 0.0398,-0.09991 0.0999,-0.179776 0.16961,-0.229729 0.07,-0.04995 0.1397,-0.07987 0.22973,-0.07987 0.0598,0 0.10978,0.02004 0.15974,0.04995 0.0598,0.02992 0.0996,0.07987 0.12954,0.129823 l 0,-0.649112 0.18965,0 0,1.817512 z m -0.57884,-0.658989 c 0,0.169615 0.0299,0.299437 0.0897,0.379589 0.05,0.07987 0.11967,0.129822 0.19954,0.129822 0.0799,0 0.14986,-0.04008 0.19981,-0.119945 0.0598,-0.07987 0.0898,-0.199813 0.0898,-0.359551 0,-0.189653 -0.0299,-0.319475 -0.0898,-0.409504 -0.0499,-0.07987 -0.12982,-0.119945 -0.20969,-0.119945 -0.0799,0 -0.1397,0.04008 -0.19953,0.119945 -0.0601,0.07987 -0.0799,0.209691 -0.0799,0.379589 z"
     id="path7615"
     inkscape:connector-curvature="0" />
  <path
     style="fill:#000000;fill-opacity:1;fill-rule:nonzero;stroke:none"
     d="m 49.178431,5.4582574 0.18965,0.02992 c -0.0299,0.1397 -0.0897,0.249767 -0.16961,0.319476 -0.0799,0.06999 -0.17978,0.110066 -0.30932,0.110066 -0.14986,0 -0.26952,-0.06011 -0.36943,-0.179775 -0.0897,-0.110067 -0.1397,-0.279682 -0.1397,-0.499534 0,-0.229728 0.05,-0.399344 0.1397,-0.519288 0.0999,-0.119945 0.21957,-0.179776 0.36943,-0.179776 0.1397,0 0.24949,0.05983 0.34939,0.179776 0.0898,0.119944 0.1397,0.28956 0.1397,0.509411 l 0,0.05983 -0.80856,0 c 0.01,0.14986 0.0398,0.259644 0.0996,0.329635 0.0601,0.07987 0.13998,0.119945 0.22973,0.119945 0.12982,0 0.22945,-0.09003 0.2794,-0.279682 z m -0.59888,-0.359552 0.59888,0 c 0,-0.110066 -0.0299,-0.199813 -0.0697,-0.249766 -0.0601,-0.07987 -0.12982,-0.119945 -0.21957,-0.119945 -0.09,0 -0.15974,0.0302 -0.20969,0.09991 -0.0598,0.06999 -0.09,0.159738 -0.0999,0.269804 z"
     id="path7617"
     inkscape:connector-curvature="0" />
  <path
     style="fill:#000000;fill-opacity:1;fill-rule:nonzero;stroke:none"
     d="m 49.597811,5.8875174 0,-1.31826 0.16962,0 0,0.199813 c 0.0401,-0.09003 0.0799,-0.14986 0.10978,-0.179776 0.0401,-0.02992 0.0799,-0.04995 0.11995,-0.04995 0.0598,0 0.11966,0.02992 0.18965,0.06999 l -0.0598,0.209691 c -0.05,-0.02992 -0.09,-0.04995 -0.13998,-0.04995 -0.0398,0 -0.0697,0.02004 -0.0996,0.03979 -0.0401,0.0302 -0.0601,0.06999 -0.07,0.119945 -0.02,0.07987 -0.0398,0.169897 -0.0398,0.269804 l 0,0.688905 z"
     id="path7619"
     inkscape:connector-curvature="0" />
</svg>
